REM DIRINDEX 1\2\4\18,1\2\4\19,1\2\5\20,1\2\5\21,1\2\6\22,1\2\6\23,1\2\7\24,1\2\7\25,1\2\8\26,1\2\8\27,1\2\9\28,1\2\9\29,1\2\10\30,1\3\11\31,1\3\11\32,1\3\11\33,1\3\11\34,1\3\11\35,1\3\12\36,1\3\12\37,1\3\12\38,1\3\12\39,1\3\12\40,1\3\13\41,1\3\13\42,1\3\13\43,1\3\13\44,1\3\13\45,1\3\14\46,1\3\14\47,1\3\14\48,1\3\14\49,1\3\15\50,1\3\15\51,1\3\15\52,1\3\15\53,1\3\15\54,1\3\16\55,1\3\16\56,1\3\16\57,1\3\16\58,1\3\16\59,1\3\17\60,1\3\17\61
REM DIRNAME "folder01","folder02","folder03","folder04","folder05","folder06","folder07","folder08","folder09","folder10","folder11","folder12","folder13","folder14","folder15","folder16","folder17","folder18","folder19","folder20","folder21","folder22","folder23","folder24","folder25","folder26","folder27","folder28","folder29","folder30","folder31","folder32","folder33","folder34","folder35","folder36","folder37","folder38","folder39","folder40","folder41","folder42","folder43","folder44","folder45","folder46","folder47","folder48","folder49","folder50","folder51","folder52","folder53","folder54","folder55","folder56","folder57","folder58","folder59","folder60","folder61"
TITLE ""
FILE "TOEIC LR Kinnojyukugo_02.mp3" MP3
  TRACK 01 AUDIO
    TITLE "0:"
    INDEX 01 00:00:00
  TRACK 02 AUDIO
    TITLE "36:cjc160_2099"
    INDEX 01 00:00:12
  TRACK 03 AUDIO
    TITLE "0:"
    INDEX 01 00:01:57
  TRACK 04 AUDIO
    TITLE "37:cjc160_2100"
    INDEX 01 00:02:23
  TRACK 05 AUDIO
    TITLE "0:"
    INDEX 01 00:03:36
  TRACK 06 AUDIO
    TITLE "38:cjc160_2101"
    INDEX 01 00:04:00
  TRACK 07 AUDIO
    TITLE "38:cjc160_2102"
    INDEX 01 00:07:06
  TRACK 08 AUDIO
    TITLE "0:"
    INDEX 01 00:08:18
  TRACK 09 AUDIO
    TITLE "39:cjc160_2103"
    INDEX 01 00:08:55
  TRACK 10 AUDIO
    TITLE "39:cjc160_2104"
    INDEX 01 00:11:22
  TRACK 11 AUDIO
    TITLE "0:"
    INDEX 01 00:12:53
  TRACK 12 AUDIO
    TITLE "40:cjc160_2105"
    INDEX 01 00:13:29
  TRACK 13 AUDIO
    TITLE "40:cjc160_2106"
    INDEX 01 00:15:71
  TRACK 14 AUDIO
    TITLE "0:"
    INDEX 01 00:17:26
  TRACK 15 AUDIO
    TITLE "36:cjc160_2107"
    INDEX 01 00:18:24
  TRACK 16 AUDIO
    TITLE "0:"
    INDEX 01 00:19:74
  TRACK 17 AUDIO
    TITLE "37:cjc160_2108"
    INDEX 01 00:20:35
  TRACK 18 AUDIO
    TITLE "0:"
    INDEX 01 00:23:33
  TRACK 19 AUDIO
    TITLE "38:cjc160_2109"
    INDEX 01 00:23:72
  TRACK 20 AUDIO
    TITLE "38:cjc160_2110"
    INDEX 01 00:28:30
  TRACK 21 AUDIO
    TITLE "0:"
    INDEX 01 00:29:67
  TRACK 22 AUDIO
    TITLE "39:cjc160_2111"
    INDEX 01 00:30:29
  TRACK 23 AUDIO
    TITLE "39:cjc160_2112"
    INDEX 01 00:33:74
  TRACK 24 AUDIO
    TITLE "0:"
    INDEX 01 00:35:46
  TRACK 25 AUDIO
    TITLE "40:cjc160_2113"
    INDEX 01 00:36:22
  TRACK 26 AUDIO
    TITLE "40:cjc160_2114"
    INDEX 01 00:39:67
  TRACK 27 AUDIO
    TITLE "0:"
    INDEX 01 00:41:39
  TRACK 28 AUDIO
    TITLE "36:cjc160_2115"
    INDEX 01 00:42:40
  TRACK 29 AUDIO
    TITLE "0:"
    INDEX 01 00:43:47
  TRACK 30 AUDIO
    TITLE "37:cjc160_2116"
    INDEX 01 00:44:10
  TRACK 31 AUDIO
    TITLE "0:"
    INDEX 01 00:48:05
  TRACK 32 AUDIO
    TITLE "38:cjc160_2117"
    INDEX 01 00:48:49
  TRACK 33 AUDIO
    TITLE "38:cjc160_2118"
    INDEX 01 00:51:59
  TRACK 34 AUDIO
    TITLE "0:"
    INDEX 01 00:53:38
  TRACK 35 AUDIO
    TITLE "39:cjc160_2119"
    INDEX 01 00:54:02
  TRACK 36 AUDIO
    TITLE "39:cjc160_2120"
    INDEX 01 00:57:02
  TRACK 37 AUDIO
    TITLE "0:"
    INDEX 01 00:59:01
  TRACK 38 AUDIO
    TITLE "40:cjc160_2121"
    INDEX 01 00:59:52
  TRACK 39 AUDIO
    TITLE "40:cjc160_2122"
    INDEX 01 01:02:56
  TRACK 40 AUDIO
    TITLE "0:"
    INDEX 01 01:04:51
  TRACK 41 AUDIO
    TITLE "36:cjc160_2123"
    INDEX 01 01:05:53
  TRACK 42 AUDIO
    TITLE "0:"
    INDEX 01 01:06:72
  TRACK 43 AUDIO
    TITLE "37:cjc160_2124"
    INDEX 01 01:07:36
  TRACK 44 AUDIO
    TITLE "0:"
    INDEX 01 01:08:61
  TRACK 45 AUDIO
    TITLE "38:cjc160_2125"
    INDEX 01 01:09:27
  TRACK 46 AUDIO
    TITLE "38:cjc160_2126"
    INDEX 01 01:12:10
  TRACK 47 AUDIO
    TITLE "0:"
    INDEX 01 01:13:68
  TRACK 48 AUDIO
    TITLE "39:cjc160_2127"
    INDEX 01 01:14:32
  TRACK 49 AUDIO
    TITLE "39:cjc160_2128"
    INDEX 01 01:16:60
  TRACK 50 AUDIO
    TITLE "0:"
    INDEX 01 01:18:26
  TRACK 51 AUDIO
    TITLE "40:cjc160_2129"
    INDEX 01 01:19:00
  TRACK 52 AUDIO
    TITLE "40:cjc160_2130"
    INDEX 01 01:21:24
  TRACK 53 AUDIO
    TITLE "0:"
    INDEX 01 01:22:69
  TRACK 54 AUDIO
    TITLE "36:cjc160_2131"
    INDEX 01 01:23:66
  TRACK 55 AUDIO
    TITLE "0:"
    INDEX 01 01:25:26
  TRACK 56 AUDIO
    TITLE "37:cjc160_2132"
    INDEX 01 01:25:65
  TRACK 57 AUDIO
    TITLE "0:"
    INDEX 01 01:27:70
  TRACK 58 AUDIO
    TITLE "38:cjc160_2133"
    INDEX 01 01:28:34
  TRACK 59 AUDIO
    TITLE "38:cjc160_2134"
    INDEX 01 01:34:00
  TRACK 60 AUDIO
    TITLE "0:"
    INDEX 01 01:36:12
  TRACK 61 AUDIO
    TITLE "39:cjc160_2135"
    INDEX 01 01:36:51
  TRACK 62 AUDIO
    TITLE "39:cjc160_2136"
    INDEX 01 01:40:30
  TRACK 63 AUDIO
    TITLE "0:"
    INDEX 01 01:42:72
  TRACK 64 AUDIO
    TITLE "40:cjc160_2137"
    INDEX 01 01:43:52
  TRACK 65 AUDIO
    TITLE "40:cjc160_2138"
    INDEX 01 01:47:28
  TRACK 66 AUDIO
    TITLE "0:"
    INDEX 01 01:49:68
  TRACK 67 AUDIO
    TITLE "36:cjc160_2139"
    INDEX 01 01:50:69
  TRACK 68 AUDIO
    TITLE "0:"
    INDEX 01 01:52:58
  TRACK 69 AUDIO
    TITLE "37:cjc160_2140"
    INDEX 01 01:53:21
  TRACK 70 AUDIO
    TITLE "0:"
    INDEX 01 01:55:27
  TRACK 71 AUDIO
    TITLE "38:cjc160_2141"
    INDEX 01 01:55:64
  TRACK 72 AUDIO
    TITLE "38:cjc160_2142"
    INDEX 01 01:59:05
  TRACK 73 AUDIO
    TITLE "0:"
    INDEX 01 02:01:16
  TRACK 74 AUDIO
    TITLE "39:cjc160_2143"
    INDEX 01 02:01:55
  TRACK 75 AUDIO
    TITLE "39:cjc160_2144"
    INDEX 01 02:04:56
  TRACK 76 AUDIO
    TITLE "0:"
    INDEX 01 02:06:31
  TRACK 77 AUDIO
    TITLE "40:cjc160_2145"
    INDEX 01 02:07:07
  TRACK 78 AUDIO
    TITLE "40:cjc160_2146"
    INDEX 01 02:10:07
  TRACK 79 AUDIO
    TITLE "0:"
    INDEX 01 02:11:60
  TRACK 80 AUDIO
    TITLE "36:cjc160_2147"
    INDEX 01 02:12:59
  TRACK 81 AUDIO
    TITLE "0:"
    INDEX 01 02:14:03
  TRACK 82 AUDIO
    TITLE "37:cjc160_2148"
    INDEX 01 02:14:40
  TRACK 83 AUDIO
    TITLE "0:"
    INDEX 01 02:17:45
  TRACK 84 AUDIO
    TITLE "38:cjc160_2149"
    INDEX 01 02:18:09
  TRACK 85 AUDIO
    TITLE "38:cjc160_2150"
    INDEX 01 02:20:25
  TRACK 86 AUDIO
    TITLE "0:"
    INDEX 01 02:21:70
  TRACK 87 AUDIO
    TITLE "39:cjc160_2151"
    INDEX 01 02:22:32
  TRACK 88 AUDIO
    TITLE "39:cjc160_2152"
    INDEX 01 02:24:58
  TRACK 89 AUDIO
    TITLE "0:"
    INDEX 01 02:26:00
  TRACK 90 AUDIO
    TITLE "40:cjc160_2153"
    INDEX 01 02:26:51
  TRACK 91 AUDIO
    TITLE "40:cjc160_2154"
    INDEX 01 02:29:03
  TRACK 92 AUDIO
    TITLE "0:"
    INDEX 01 02:30:22
  TRACK 93 AUDIO
    TITLE "36:cjc160_2155"
    INDEX 01 02:31:23
  TRACK 94 AUDIO
    TITLE "0:"
    INDEX 01 02:34:16
  TRACK 95 AUDIO
    TITLE "37:cjc160_2156"
    INDEX 01 02:34:53
  TRACK 96 AUDIO
    TITLE "0:"
    INDEX 01 02:36:71
  TRACK 97 AUDIO
    TITLE "38:cjc160_2157"
    INDEX 01 02:37:35
  TRACK 98 AUDIO
    TITLE "38:cjc160_2158"
    INDEX 01 02:40:55
  TRACK 99 AUDIO
    TITLE "0:"
    INDEX 01 02:42:33
  TRACK 100 AUDIO
    TITLE "39:cjc160_2159"
    INDEX 01 02:42:70
  TRACK 101 AUDIO
    TITLE "39:cjc160_2160"
    INDEX 01 02:45:55
  TRACK 102 AUDIO
    TITLE "0:"
    INDEX 01 02:46:66
  TRACK 103 AUDIO
    TITLE "40:cjc160_2161"
    INDEX 01 02:47:40
  TRACK 104 AUDIO
    TITLE "40:cjc160_2162"
    INDEX 01 02:50:24
  TRACK 105 AUDIO
    TITLE "0:"
    INDEX 01 02:51:36
  TRACK 106 AUDIO
    TITLE "36:cjc160_2163"
    INDEX 01 02:52:35
  TRACK 107 AUDIO
    TITLE "0:"
    INDEX 01 02:53:56
  TRACK 108 AUDIO
    TITLE "37:cjc160_2164"
    INDEX 01 02:54:16
  TRACK 109 AUDIO
    TITLE "0:"
    INDEX 01 02:55:39
  TRACK 110 AUDIO
    TITLE "38:cjc160_2165"
    INDEX 01 02:56:01
  TRACK 111 AUDIO
    TITLE "38:cjc160_2166"
    INDEX 01 02:58:16
  TRACK 112 AUDIO
    TITLE "0:"
    INDEX 01 02:59:63
  TRACK 113 AUDIO
    TITLE "39:cjc160_2167"
    INDEX 01 03:00:25
  TRACK 114 AUDIO
    TITLE "39:cjc160_2168"
    INDEX 01 03:02:18
  TRACK 115 AUDIO
    TITLE "0:"
    INDEX 01 03:03:64
  TRACK 116 AUDIO
    TITLE "40:cjc160_2169"
    INDEX 01 03:04:40
  TRACK 117 AUDIO
    TITLE "40:cjc160_2170"
    INDEX 01 03:06:31
  TRACK 118 AUDIO
    TITLE "0:"
    INDEX 01 03:08:05
  TRACK 119 AUDIO
    TITLE "36:cjc160_2171"
    INDEX 01 03:09:06
  TRACK 120 AUDIO
    TITLE "0:"
    INDEX 01 03:10:58
  TRACK 121 AUDIO
    TITLE "37:cjc160_2172"
    INDEX 01 03:11:21
  TRACK 122 AUDIO
    TITLE "0:"
    INDEX 01 03:12:73
  TRACK 123 AUDIO
    TITLE "38:cjc160_2173"
    INDEX 01 03:13:39
  TRACK 124 AUDIO
    TITLE "38:cjc160_2174"
    INDEX 01 03:15:28
  TRACK 125 AUDIO
    TITLE "0:"
    INDEX 01 03:17:58
  TRACK 126 AUDIO
    TITLE "39:cjc160_2175"
    INDEX 01 03:18:25
  TRACK 127 AUDIO
    TITLE "39:cjc160_2176"
    INDEX 01 03:19:73
  TRACK 128 AUDIO
    TITLE "0:"
    INDEX 01 03:22:01
  TRACK 129 AUDIO
    TITLE "40:cjc160_2177"
    INDEX 01 03:22:54
  TRACK 130 AUDIO
    TITLE "40:cjc160_2178"
    INDEX 01 03:24:27
  TRACK 131 AUDIO
    TITLE "0:"
    INDEX 01 03:26:32
  TRACK 132 AUDIO
    TITLE "36:cjc160_2179"
    INDEX 01 03:27:31
  TRACK 133 AUDIO
    TITLE "0:"
    INDEX 01 03:29:34
  TRACK 134 AUDIO
    TITLE "37:cjc160_2180"
    INDEX 01 03:29:68
  TRACK 135 AUDIO
    TITLE "0:"
    INDEX 01 03:32:46
  TRACK 136 AUDIO
    TITLE "38:cjc160_2181"
    INDEX 01 03:33:10
  TRACK 137 AUDIO
    TITLE "38:cjc160_2182"
    INDEX 01 03:37:08
  TRACK 138 AUDIO
    TITLE "0:"
    INDEX 01 03:38:51
  TRACK 139 AUDIO
    TITLE "39:cjc160_2183"
    INDEX 01 03:39:15
  TRACK 140 AUDIO
    TITLE "39:cjc160_2184"
    INDEX 01 03:42:25
  TRACK 141 AUDIO
    TITLE "0:"
    INDEX 01 03:43:38
  TRACK 142 AUDIO
    TITLE "40:cjc160_2185"
    INDEX 01 03:44:16
  TRACK 143 AUDIO
    TITLE "40:cjc160_2186"
    INDEX 01 03:47:26
  TRACK 144 AUDIO
    TITLE "0:"
    INDEX 01 03:48:39
  TRACK 145 AUDIO
    TITLE "36:cjc160_2187"
    INDEX 01 03:49:41
  TRACK 146 AUDIO
    TITLE "0:"
    INDEX 01 03:51:06
  TRACK 147 AUDIO
    TITLE "37:cjc160_2188"
    INDEX 01 03:51:46
  TRACK 148 AUDIO
    TITLE "0:"
    INDEX 01 03:53:19
  TRACK 149 AUDIO
    TITLE "38:cjc160_2189"
    INDEX 01 03:53:58
  TRACK 150 AUDIO
    TITLE "38:cjc160_2190"
    INDEX 01 03:57:27
  TRACK 151 AUDIO
    TITLE "0:"
    INDEX 01 03:58:73
  TRACK 152 AUDIO
    TITLE "39:cjc160_2191"
    INDEX 01 03:59:37
  TRACK 153 AUDIO
    TITLE "39:cjc160_2192"
    INDEX 01 04:03:23
  TRACK 154 AUDIO
    TITLE "0:"
    INDEX 01 04:04:72
  TRACK 155 AUDIO
    TITLE "40:cjc160_2193"
    INDEX 01 04:05:48
  TRACK 156 AUDIO
    TITLE "40:cjc160_2194"
    INDEX 01 04:09:34
  TRACK 157 AUDIO
    TITLE "0:"
    INDEX 01 04:11:07
  TRACK 158 AUDIO
    TITLE "36:cjc160_2195"
    INDEX 01 04:12:07
  TRACK 159 AUDIO
    TITLE "0:"
    INDEX 01 04:13:22
  TRACK 160 AUDIO
    TITLE "37:cjc160_2196"
    INDEX 01 04:13:61
  TRACK 161 AUDIO
    TITLE "0:"
    INDEX 01 04:15:05
  TRACK 162 AUDIO
    TITLE "38:cjc160_2197"
    INDEX 01 04:15:44
  TRACK 163 AUDIO
    TITLE "38:cjc160_2198"
    INDEX 01 04:19:36
  TRACK 164 AUDIO
    TITLE "0:"
    INDEX 01 04:21:33
  TRACK 165 AUDIO
    TITLE "39:cjc160_2199"
    INDEX 01 04:21:70
  TRACK 166 AUDIO
    TITLE "39:cjc160_2200"
    INDEX 01 04:25:23
  TRACK 167 AUDIO
    TITLE "0:"
    INDEX 01 04:27:24
  TRACK 168 AUDIO
    TITLE "40:cjc160_2201"
    INDEX 01 04:28:00
  TRACK 169 AUDIO
    TITLE "40:cjc160_2202"
    INDEX 01 04:31:28
  TRACK 170 AUDIO
    TITLE "0:"
    INDEX 01 04:33:28
  TRACK 171 AUDIO
    TITLE "36:cjc160_2203"
    INDEX 01 04:34:30
  TRACK 172 AUDIO
    TITLE "0:"
    INDEX 01 04:35:41
  TRACK 173 AUDIO
    TITLE "37:cjc160_2204"
    INDEX 01 04:36:01
  TRACK 174 AUDIO
    TITLE "0:"
    INDEX 01 04:37:22
  TRACK 175 AUDIO
    TITLE "38:cjc160_2205"
    INDEX 01 04:37:59
  TRACK 176 AUDIO
    TITLE "38:cjc160_2206"
    INDEX 01 04:41:57
  TRACK 177 AUDIO
    TITLE "0:"
    INDEX 01 04:44:42
  TRACK 178 AUDIO
    TITLE "39:cjc160_2207"
    INDEX 01 04:45:08
  TRACK 179 AUDIO
    TITLE "39:cjc160_2208"
    INDEX 01 04:48:36
  TRACK 180 AUDIO
    TITLE "0:"
    INDEX 01 04:50:64
  TRACK 181 AUDIO
    TITLE "40:cjc160_2209"
    INDEX 01 04:51:40
  TRACK 182 AUDIO
    TITLE "40:cjc160_2210"
    INDEX 01 04:54:68
  TRACK 183 AUDIO
    TITLE "0:"
    INDEX 01 04:57:21
  TRACK 184 AUDIO
    TITLE "36:cjc160_2211"
    INDEX 01 04:58:22
  TRACK 185 AUDIO
    TITLE "0:"
    INDEX 01 04:59:51
  TRACK 186 AUDIO
    TITLE "37:cjc160_2212"
    INDEX 01 05:00:13
  TRACK 187 AUDIO
    TITLE "0:"
    INDEX 01 05:01:52
  TRACK 188 AUDIO
    TITLE "38:cjc160_2213"
    INDEX 01 05:02:18
  TRACK 189 AUDIO
    TITLE "38:cjc160_2214"
    INDEX 01 05:04:48
  TRACK 190 AUDIO
    TITLE "0:"
    INDEX 01 05:07:57
  TRACK 191 AUDIO
    TITLE "39:cjc160_2215"
    INDEX 01 05:08:19
  TRACK 192 AUDIO
    TITLE "39:cjc160_2216"
    INDEX 01 05:10:51
  TRACK 193 AUDIO
    TITLE "0:"
    INDEX 01 05:12:64
  TRACK 194 AUDIO
    TITLE "40:cjc160_2217"
    INDEX 01 05:13:40
  TRACK 195 AUDIO
    TITLE "40:cjc160_2218"
    INDEX 01 05:15:70
  TRACK 196 AUDIO
    TITLE "0:"
    INDEX 01 05:18:06
  TRACK 197 AUDIO
    TITLE "36:cjc160_2219"
    INDEX 01 05:19:05
  TRACK 198 AUDIO
    TITLE "0:"
    INDEX 01 05:20:55
  TRACK 199 AUDIO
    TITLE "37:cjc160_2220"
    INDEX 01 05:21:18
  TRACK 200 AUDIO
    TITLE "0:"
    INDEX 01 05:24:36
  TRACK 201 AUDIO
    TITLE "38:cjc160_2221"
    INDEX 01 05:25:00
  TRACK 202 AUDIO
    TITLE "38:cjc160_2222"
    INDEX 01 05:28:06
  TRACK 203 AUDIO
    TITLE "0:"
    INDEX 01 05:30:05
  TRACK 204 AUDIO
    TITLE "39:cjc160_2223"
    INDEX 01 05:30:44
  TRACK 205 AUDIO
    TITLE "39:cjc160_2224"
    INDEX 01 05:32:68
  TRACK 206 AUDIO
    TITLE "0:"
    INDEX 01 05:35:22
  TRACK 207 AUDIO
    TITLE "40:cjc160_2225"
    INDEX 01 05:35:69
  TRACK 208 AUDIO
    TITLE "40:cjc160_2226"
    INDEX 01 05:38:18
  TRACK 209 AUDIO
    TITLE "0:"
    INDEX 01 05:40:44
  TRACK 210 AUDIO
    TITLE "36:cjc160_2227"
    INDEX 01 05:41:44
  TRACK 211 AUDIO
    TITLE "0:"
    INDEX 01 05:45:30
  TRACK 212 AUDIO
    TITLE "37:cjc160_2228"
    INDEX 01 05:46:02
  TRACK 213 AUDIO
    TITLE "0:"
    INDEX 01 05:48:13
  TRACK 214 AUDIO
    TITLE "38:cjc160_2229"
    INDEX 01 05:48:50
  TRACK 215 AUDIO
    TITLE "38:cjc160_2230"
    INDEX 01 05:52:04
  TRACK 216 AUDIO
    TITLE "0:"
    INDEX 01 05:54:66
  TRACK 217 AUDIO
    TITLE "39:cjc160_2231"
    INDEX 01 05:55:30
  TRACK 218 AUDIO
    TITLE "39:cjc160_2232"
    INDEX 01 05:57:74
  TRACK 219 AUDIO
    TITLE "0:"
    INDEX 01 06:00:49
  TRACK 220 AUDIO
    TITLE "40:cjc160_2233"
    INDEX 01 06:01:33
  TRACK 221 AUDIO
    TITLE "40:cjc160_2234"
    INDEX 01 06:04:02
  TRACK 222 AUDIO
    TITLE "0:"
    INDEX 01 06:06:54
  TRACK 223 AUDIO
    TITLE "36:cjc160_2235"
    INDEX 01 06:07:61
  TRACK 224 AUDIO
    TITLE "0:"
    INDEX 01 06:09:05
  TRACK 225 AUDIO
    TITLE "37:cjc160_2236"
    INDEX 01 06:09:44
  TRACK 226 AUDIO
    TITLE "0:"
    INDEX 01 06:12:13
  TRACK 227 AUDIO
    TITLE "38:cjc160_2237"
    INDEX 01 06:12:50
  TRACK 228 AUDIO
    TITLE "38:cjc160_2238"
    INDEX 01 06:14:63
  TRACK 229 AUDIO
    TITLE "0:"
    INDEX 01 06:18:04
  TRACK 230 AUDIO
    TITLE "39:cjc160_2239"
    INDEX 01 06:18:43
  TRACK 231 AUDIO
    TITLE "39:cjc160_2240"
    INDEX 01 06:20:44
  TRACK 232 AUDIO
    TITLE "0:"
    INDEX 01 06:24:26
  TRACK 233 AUDIO
    TITLE "40:cjc160_2241"
    INDEX 01 06:25:00
  TRACK 234 AUDIO
    TITLE "40:cjc160_2242"
    INDEX 01 06:26:72
  TRACK 235 AUDIO
    TITLE "0:"
    INDEX 01 06:30:58
  TRACK 236 AUDIO
    TITLE "36:cjc160_2243"
    INDEX 01 06:31:57
  TRACK 237 AUDIO
    TITLE "0:"
    INDEX 01 06:33:37
  TRACK 238 AUDIO
    TITLE "37:cjc160_2244"
    INDEX 01 06:34:01
  TRACK 239 AUDIO
    TITLE "0:"
    INDEX 01 06:35:24
  TRACK 240 AUDIO
    TITLE "38:cjc160_2245"
    INDEX 01 06:35:67
  TRACK 241 AUDIO
    TITLE "38:cjc160_2246"
    INDEX 01 06:39:29
  TRACK 242 AUDIO
    TITLE "0:"
    INDEX 01 06:41:11
  TRACK 243 AUDIO
    TITLE "39:cjc160_2247"
    INDEX 01 06:41:48
  TRACK 244 AUDIO
    TITLE "39:cjc160_2248"
    INDEX 01 06:44:23
  TRACK 245 AUDIO
    TITLE "0:"
    INDEX 01 06:46:59
  TRACK 246 AUDIO
    TITLE "40:cjc160_2249"
    INDEX 01 06:47:33
  TRACK 247 AUDIO
    TITLE "40:cjc160_2250"
    INDEX 01 06:50:08
  TRACK 248 AUDIO
    TITLE "0:"
    INDEX 01 06:52:44
  TRACK 249 AUDIO
    TITLE "36:cjc160_2251"
    INDEX 01 06:53:43
  TRACK 250 AUDIO
    TITLE "0:"
    INDEX 01 06:55:17
  TRACK 251 AUDIO
    TITLE "37:cjc160_2252"
    INDEX 01 06:55:56
  TRACK 252 AUDIO
    TITLE "0:"
    INDEX 01 06:56:65
  TRACK 253 AUDIO
    TITLE "38:cjc160_2253"
    INDEX 01 06:57:27
  TRACK 254 AUDIO
    TITLE "38:cjc160_2254"
    INDEX 01 07:02:07
  TRACK 255 AUDIO
    TITLE "0:"
    INDEX 01 07:03:16
  TRACK 256 AUDIO
    TITLE "39:cjc160_2255"
    INDEX 01 07:03:57
  TRACK 257 AUDIO
    TITLE "39:cjc160_2256"
    INDEX 01 07:08:45
  TRACK 258 AUDIO
    TITLE "0:"
    INDEX 01 07:10:06
  TRACK 259 AUDIO
    TITLE "40:cjc160_2257"
    INDEX 01 07:10:57
  TRACK 260 AUDIO
    TITLE "40:cjc160_2258"
    INDEX 01 07:15:43
  TRACK 261 AUDIO
    TITLE "0:"
    INDEX 01 07:17:09
  TRACK 262 AUDIO
    TITLE "36:cjc160_2259"
    INDEX 01 07:18:06
  TRACK 263 AUDIO
    TITLE "0:"
    INDEX 01 07:20:15
  TRACK 264 AUDIO
    TITLE "37:cjc160_2260"
    INDEX 01 07:20:54
  TRACK 265 AUDIO
    TITLE "0:"
    INDEX 01 07:22:18
  TRACK 266 AUDIO
    TITLE "38:cjc160_2261"
    INDEX 01 07:22:57
  TRACK 267 AUDIO
    TITLE "38:cjc160_2262"
    INDEX 01 07:28:55
  TRACK 268 AUDIO
    TITLE "0:"
    INDEX 01 07:30:17
  TRACK 269 AUDIO
    TITLE "39:cjc160_2263"
    INDEX 01 07:30:56
  TRACK 270 AUDIO
    TITLE "39:cjc160_2264"
    INDEX 01 07:34:60
  TRACK 271 AUDIO
    TITLE "0:"
    INDEX 01 07:36:63
  TRACK 272 AUDIO
    TITLE "40:cjc160_2265"
    INDEX 01 07:37:39
  TRACK 273 AUDIO
    TITLE "40:cjc160_2266"
    INDEX 01 07:41:42
  TRACK 274 AUDIO
    TITLE "0:"
    INDEX 01 07:43:45
  TRACK 275 AUDIO
    TITLE "36:cjc160_2267"
    INDEX 01 07:44:41
  TRACK 276 AUDIO
    TITLE "0:"
    INDEX 01 07:45:71
  TRACK 277 AUDIO
    TITLE "37:cjc160_2268"
    INDEX 01 07:46:38
  TRACK 278 AUDIO
    TITLE "0:"
    INDEX 01 07:49:14
  TRACK 279 AUDIO
    TITLE "38:cjc160_2269"
    INDEX 01 07:49:54
  TRACK 280 AUDIO
    TITLE "38:cjc160_2270"
    INDEX 01 07:52:01
  TRACK 281 AUDIO
    TITLE "0:"
    INDEX 01 07:53:67
  TRACK 282 AUDIO
    TITLE "39:cjc160_2271"
    INDEX 01 07:54:33
  TRACK 283 AUDIO
    TITLE "39:cjc160_2272"
    INDEX 01 07:56:44
  TRACK 284 AUDIO
    TITLE "0:"
    INDEX 01 07:58:55
  TRACK 285 AUDIO
    TITLE "40:cjc160_2273"
    INDEX 01 07:59:30
  TRACK 286 AUDIO
    TITLE "40:cjc160_2274"
    INDEX 01 08:01:41
  TRACK 287 AUDIO
    TITLE "0:"
    INDEX 01 08:03:52
  TRACK 288 AUDIO
    TITLE "36:cjc160_2275"
    INDEX 01 08:04:53
  TRACK 289 AUDIO
    TITLE "0:"
    INDEX 01 08:06:30
  TRACK 290 AUDIO
    TITLE "37:cjc160_2276"
    INDEX 01 08:06:68
  TRACK 291 AUDIO
    TITLE "0:"
    INDEX 01 08:10:15
  TRACK 292 AUDIO
    TITLE "38:cjc160_2277"
    INDEX 01 08:10:54
  TRACK 293 AUDIO
    TITLE "38:cjc160_2278"
    INDEX 01 08:13:48
  TRACK 294 AUDIO
    TITLE "0:"
    INDEX 01 08:16:35
  TRACK 295 AUDIO
    TITLE "39:cjc160_2279"
    INDEX 01 08:16:74
  TRACK 296 AUDIO
    TITLE "39:cjc160_2280"
    INDEX 01 08:19:02
  TRACK 297 AUDIO
    TITLE "0:"
    INDEX 01 08:21:07
  TRACK 298 AUDIO
    TITLE "40:cjc160_2281"
    INDEX 01 08:21:57
  TRACK 299 AUDIO
    TITLE "40:cjc160_2282"
    INDEX 01 08:23:60
  TRACK 300 AUDIO
    TITLE "0:"
    INDEX 01 08:25:55
  TRACK 301 AUDIO
    TITLE "36:cjc160_2283"
    INDEX 01 08:26:63
  TRACK 302 AUDIO
    TITLE "0:"
    INDEX 01 08:28:38
  TRACK 303 AUDIO
    TITLE "37:cjc160_2284"
    INDEX 01 08:29:08
  TRACK 304 AUDIO
    TITLE "0:"
    INDEX 01 08:32:46
  TRACK 305 AUDIO
    TITLE "38:cjc160_2285"
    INDEX 01 08:33:14
  TRACK 306 AUDIO
    TITLE "38:cjc160_2286"
    INDEX 01 08:37:08
  TRACK 307 AUDIO
    TITLE "0:"
    INDEX 01 08:38:52
  TRACK 308 AUDIO
    TITLE "39:cjc160_2287"
    INDEX 01 08:39:16
  TRACK 309 AUDIO
    TITLE "39:cjc160_2288"
    INDEX 01 08:42:62
  TRACK 310 AUDIO
    TITLE "0:"
    INDEX 01 08:44:39
  TRACK 311 AUDIO
    TITLE "40:cjc160_2289"
    INDEX 01 08:45:13
  TRACK 312 AUDIO
    TITLE "40:cjc160_2290"
    INDEX 01 08:48:60
  TRACK 313 AUDIO
    TITLE "0:"
    INDEX 01 08:50:38
  TRACK 314 AUDIO
    TITLE "36:cjc160_2291"
    INDEX 01 08:51:35
  TRACK 315 AUDIO
    TITLE "0:"
    INDEX 01 08:52:56
  TRACK 316 AUDIO
    TITLE "37:cjc160_2292"
    INDEX 01 08:53:22
  TRACK 317 AUDIO
    TITLE "0:"
    INDEX 01 08:55:49
  TRACK 318 AUDIO
    TITLE "38:cjc160_2293"
    INDEX 01 08:56:13
  TRACK 319 AUDIO
    TITLE "38:cjc160_2294"
    INDEX 01 09:01:41
  TRACK 320 AUDIO
    TITLE "0:"
    INDEX 01 09:02:56
  TRACK 321 AUDIO
    TITLE "39:cjc160_2295"
    INDEX 01 09:03:23
  TRACK 322 AUDIO
    TITLE "39:cjc160_2296"
    INDEX 01 09:07:16
  TRACK 323 AUDIO
    TITLE "0:"
    INDEX 01 09:08:28
  TRACK 324 AUDIO
    TITLE "40:cjc160_2297"
    INDEX 01 09:09:06
  TRACK 325 AUDIO
    TITLE "40:cjc160_2298"
    INDEX 01 09:12:73
  TRACK 326 AUDIO
    TITLE "0:"
    INDEX 01 09:14:07
  TRACK 327 AUDIO
    TITLE "36:cjc160_2299"
    INDEX 01 09:15:10
  TRACK 328 AUDIO
    TITLE "0:"
    INDEX 01 09:16:25
  TRACK 329 AUDIO
    TITLE "37:cjc160_2300"
    INDEX 01 09:16:62
  TRACK 330 AUDIO
    TITLE "0:"
    INDEX 01 09:18:12
  TRACK 331 AUDIO
    TITLE "38:cjc160_2301"
    INDEX 01 09:18:52
  TRACK 332 AUDIO
    TITLE "38:cjc160_2302"
    INDEX 01 09:21:21
  TRACK 333 AUDIO
    TITLE "0:"
    INDEX 01 09:24:11
  TRACK 334 AUDIO
    TITLE "39:cjc160_2303"
    INDEX 01 09:24:56
  TRACK 335 AUDIO
    TITLE "39:cjc160_2304"
    INDEX 01 09:27:52
  TRACK 336 AUDIO
    TITLE "0:"
    INDEX 01 09:30:66
  TRACK 337 AUDIO
    TITLE "40:cjc160_2305"
    INDEX 01 09:31:39
  TRACK 338 AUDIO
    TITLE "40:cjc160_2306"
    INDEX 01 09:34:35
  TRACK 339 AUDIO
    TITLE "0:"
    INDEX 01 09:37:47
  TRACK 340 AUDIO
    TITLE "36:cjc160_2307"
    INDEX 01 09:38:46
  TRACK 341 AUDIO
    TITLE "0:"
    INDEX 01 09:40:06
  TRACK 342 AUDIO
    TITLE "37:cjc160_2308"
    INDEX 01 09:40:43
  TRACK 343 AUDIO
    TITLE "0:"
    INDEX 01 09:42:42
  TRACK 344 AUDIO
    TITLE "38:cjc160_2309"
    INDEX 01 09:43:06
  TRACK 345 AUDIO
    TITLE "38:cjc160_2310"
    INDEX 01 09:46:52
  TRACK 346 AUDIO
    TITLE "0:"
    INDEX 01 09:48:43
  TRACK 347 AUDIO
    TITLE "39:cjc160_2311"
    INDEX 01 09:49:05
  TRACK 348 AUDIO
    TITLE "39:cjc160_2312"
    INDEX 01 09:51:57
  TRACK 349 AUDIO
    TITLE "0:"
    INDEX 01 09:53:15
  TRACK 350 AUDIO
    TITLE "40:cjc160_2313"
    INDEX 01 09:53:64
  TRACK 351 AUDIO
    TITLE "40:cjc160_2314"
    INDEX 01 09:56:40
  TRACK 352 AUDIO
    TITLE "0:"
    INDEX 01 09:57:71
  TRACK 353 AUDIO
    TITLE "36:cjc160_2315"
    INDEX 01 09:58:71
  TRACK 354 AUDIO
    TITLE "0:"
    INDEX 01 10:00:09
  TRACK 355 AUDIO
    TITLE "37:cjc160_2316"
    INDEX 01 10:00:46
  TRACK 356 AUDIO
    TITLE "0:"
    INDEX 01 10:01:65
  TRACK 357 AUDIO
    TITLE "38:cjc160_2317"
    INDEX 01 10:02:29
  TRACK 358 AUDIO
    TITLE "38:cjc160_2318"
    INDEX 01 10:05:71
  TRACK 359 AUDIO
    TITLE "0:"
    INDEX 01 10:07:40
  TRACK 360 AUDIO
    TITLE "39:cjc160_2319"
    INDEX 01 10:08:01
  TRACK 361 AUDIO
    TITLE "39:cjc160_2320"
    INDEX 01 10:10:72
  TRACK 362 AUDIO
    TITLE "0:"
    INDEX 01 10:12:41
  TRACK 363 AUDIO
    TITLE "40:cjc160_2321"
    INDEX 01 10:13:21
  TRACK 364 AUDIO
    TITLE "40:cjc160_2322"
    INDEX 01 10:16:20
  TRACK 365 AUDIO
    TITLE "0:"
    INDEX 01 10:17:64
  TRACK 366 AUDIO
    TITLE "36:cjc160_2323"
    INDEX 01 10:18:73
  TRACK 367 AUDIO
    TITLE "0:"
    INDEX 01 10:21:38
  TRACK 368 AUDIO
    TITLE "37:cjc160_2324"
    INDEX 01 10:22:01
  TRACK 369 AUDIO
    TITLE "0:"
    INDEX 01 10:25:24
  TRACK 370 AUDIO
    TITLE "38:cjc160_2325"
    INDEX 01 10:25:66
  TRACK 371 AUDIO
    TITLE "38:cjc160_2326"
    INDEX 01 10:30:24
  TRACK 372 AUDIO
    TITLE "0:"
    INDEX 01 10:33:44
  TRACK 373 AUDIO
    TITLE "39:cjc160_2327"
    INDEX 01 10:34:08
  TRACK 374 AUDIO
    TITLE "39:cjc160_2328"
    INDEX 01 10:37:20
  TRACK 375 AUDIO
    TITLE "0:"
    INDEX 01 10:39:32
  TRACK 376 AUDIO
    TITLE "40:cjc160_2329"
    INDEX 01 10:40:08
  TRACK 377 AUDIO
    TITLE "40:cjc160_2330"
    INDEX 01 10:43:18
  TRACK 378 AUDIO
    TITLE "0:"
    INDEX 01 10:45:33
  TRACK 379 AUDIO
    TITLE "36:cjc160_2331"
    INDEX 01 10:46:32
  TRACK 380 AUDIO
    TITLE "0:"
    INDEX 01 10:47:50
  TRACK 381 AUDIO
    TITLE "37:cjc160_2332"
    INDEX 01 10:48:08
  TRACK 382 AUDIO
    TITLE "0:"
    INDEX 01 10:51:18
  TRACK 383 AUDIO
    TITLE "38:cjc160_2333"
    INDEX 01 10:51:55
  TRACK 384 AUDIO
    TITLE "38:cjc160_2334"
    INDEX 01 10:55:22
  TRACK 385 AUDIO
    TITLE "0:"
    INDEX 01 10:57:34
  TRACK 386 AUDIO
    TITLE "39:cjc160_2335"
    INDEX 01 10:58:00
  TRACK 387 AUDIO
    TITLE "39:cjc160_2336"
    INDEX 01 11:01:73
  TRACK 388 AUDIO
    TITLE "0:"
    INDEX 01 11:04:05
  TRACK 389 AUDIO
    TITLE "40:cjc160_2337"
    INDEX 01 11:04:56
  TRACK 390 AUDIO
    TITLE "40:cjc160_2338"
    INDEX 01 11:08:58
  TRACK 391 AUDIO
    TITLE "0:"
    INDEX 01 11:10:64
  TRACK 392 AUDIO
    TITLE "36:cjc160_2339"
    INDEX 01 11:11:64
  TRACK 393 AUDIO
    TITLE "0:"
    INDEX 01 11:13:57
  TRACK 394 AUDIO
    TITLE "37:cjc160_2340"
    INDEX 01 11:14:21
  TRACK 395 AUDIO
    TITLE "0:"
    INDEX 01 11:15:69
  TRACK 396 AUDIO
    TITLE "38:cjc160_2341"
    INDEX 01 11:16:36
  TRACK 397 AUDIO
    TITLE "38:cjc160_2342"
    INDEX 01 11:18:52
  TRACK 398 AUDIO
    TITLE "0:"
    INDEX 01 11:20:65
  TRACK 399 AUDIO
    TITLE "39:cjc160_2343"
    INDEX 01 11:21:29
  TRACK 400 AUDIO
    TITLE "39:cjc160_2344"
    INDEX 01 11:23:24
  TRACK 401 AUDIO
    TITLE "0:"
    INDEX 01 11:25:03
  TRACK 402 AUDIO
    TITLE "40:cjc160_2345"
    INDEX 01 11:25:54
  TRACK 403 AUDIO
    TITLE "40:cjc160_2346"
    INDEX 01 11:27:47
  TRACK 404 AUDIO
    TITLE "0:"
    INDEX 01 11:29:28
  TRACK 405 AUDIO
    TITLE "36:cjc160_2347"
    INDEX 01 11:30:28
  TRACK 406 AUDIO
    TITLE "0:"
    INDEX 01 11:31:47
  TRACK 407 AUDIO
    TITLE "37:cjc160_2348"
    INDEX 01 11:32:09
  TRACK 408 AUDIO
    TITLE "0:"
    INDEX 01 11:34:35
  TRACK 409 AUDIO
    TITLE "38:cjc160_2349"
    INDEX 01 11:34:73
  TRACK 410 AUDIO
    TITLE "38:cjc160_2350"
    INDEX 01 11:37:55
  TRACK 411 AUDIO
    TITLE "0:"
    INDEX 01 11:39:70
  TRACK 412 AUDIO
    TITLE "39:cjc160_2351"
    INDEX 01 11:40:34
  TRACK 413 AUDIO
    TITLE "39:cjc160_2352"
    INDEX 01 11:42:60
  TRACK 414 AUDIO
    TITLE "0:"
    INDEX 01 11:45:53
  TRACK 415 AUDIO
    TITLE "40:cjc160_2353"
    INDEX 01 11:46:27
  TRACK 416 AUDIO
    TITLE "40:cjc160_2354"
    INDEX 01 11:48:55
  TRACK 417 AUDIO
    TITLE "0:"
    INDEX 01 11:51:48
  TRACK 418 AUDIO
    TITLE "36:cjc160_2355"
    INDEX 01 11:52:49
  TRACK 419 AUDIO
    TITLE "0:"
    INDEX 01 11:54:15
  TRACK 420 AUDIO
    TITLE "37:cjc160_2356"
    INDEX 01 11:54:54
  TRACK 421 AUDIO
    TITLE "0:"
    INDEX 01 11:56:37
  TRACK 422 AUDIO
    TITLE "38:cjc160_2357"
    INDEX 01 11:57:03
  TRACK 423 AUDIO
    TITLE "38:cjc160_2358"
    INDEX 01 12:01:11
  TRACK 424 AUDIO
    TITLE "0:"
    INDEX 01 12:04:72
  TRACK 425 AUDIO
    TITLE "39:cjc160_2359"
    INDEX 01 12:05:36
  TRACK 426 AUDIO
    TITLE "39:cjc160_2360"
    INDEX 01 12:09:34
  TRACK 427 AUDIO
    TITLE "0:"
    INDEX 01 12:13:47
  TRACK 428 AUDIO
    TITLE "40:cjc160_2361"
    INDEX 01 12:14:21
  TRACK 429 AUDIO
    TITLE "40:cjc160_2362"
    INDEX 01 12:18:19
  TRACK 430 AUDIO
    TITLE "0:"
    INDEX 01 12:22:30
  TRACK 431 AUDIO
    TITLE "36:cjc160_2363"
    INDEX 01 12:23:30
  TRACK 432 AUDIO
    TITLE "0:"
    INDEX 01 12:24:55
  TRACK 433 AUDIO
    TITLE "37:cjc160_2364"
    INDEX 01 12:25:15
  TRACK 434 AUDIO
    TITLE "0:"
    INDEX 01 12:26:17
  TRACK 435 AUDIO
    TITLE "38:cjc160_2365"
    INDEX 01 12:26:62
  TRACK 436 AUDIO
    TITLE "38:cjc160_2366"
    INDEX 01 12:29:68
  TRACK 437 AUDIO
    TITLE "0:"
    INDEX 01 12:33:64
  TRACK 438 AUDIO
    TITLE "39:cjc160_2367"
    INDEX 01 12:34:26
  TRACK 439 AUDIO
    TITLE "39:cjc160_2368"
    INDEX 01 12:37:46
  TRACK 440 AUDIO
    TITLE "0:"
    INDEX 01 12:41:69
  TRACK 441 AUDIO
    TITLE "40:cjc160_2369"
    INDEX 01 12:42:43
  TRACK 442 AUDIO
    TITLE "40:cjc160_2370"
    INDEX 01 12:45:63
  TRACK 443 AUDIO
    TITLE "0:"
    INDEX 01 12:50:11
  TRACK 444 AUDIO
    TITLE "36:cjc160_2371"
    INDEX 01 12:51:07
  TRACK 445 AUDIO
    TITLE "0:"
    INDEX 01 12:52:39
  TRACK 446 AUDIO
    TITLE "37:cjc160_2372"
    INDEX 01 12:53:04
  TRACK 447 AUDIO
    TITLE "0:"
    INDEX 01 12:54:58
  TRACK 448 AUDIO
    TITLE "38:cjc160_2373"
    INDEX 01 12:55:24
  TRACK 449 AUDIO
    TITLE "38:cjc160_2374"
    INDEX 01 12:58:50
  TRACK 450 AUDIO
    TITLE "0:"
    INDEX 01 13:05:54
  TRACK 451 AUDIO
    TITLE "39:cjc160_2375"
    INDEX 01 13:06:18
  TRACK 452 AUDIO
    TITLE "39:cjc160_2376"
    INDEX 01 13:09:26
  TRACK 453 AUDIO
    TITLE "0:"
    INDEX 01 13:14:61
  TRACK 454 AUDIO
    TITLE "40:cjc160_2377"
    INDEX 01 13:15:37
  TRACK 455 AUDIO
    TITLE "40:cjc160_2378"
    INDEX 01 13:18:47
  TRACK 456 AUDIO
    TITLE "0:"
    INDEX 01 13:24:06
  TRACK 457 AUDIO
    TITLE "36:cjc160_2379"
    INDEX 01 13:25:06
  TRACK 458 AUDIO
    TITLE "0:"
    INDEX 01 13:26:30
  TRACK 459 AUDIO
    TITLE "37:cjc160_2380"
    INDEX 01 13:26:68
  TRACK 460 AUDIO
    TITLE "0:"
    INDEX 01 13:30:26
  TRACK 461 AUDIO
    TITLE "38:cjc160_2381"
    INDEX 01 13:30:64
  TRACK 462 AUDIO
    TITLE "38:cjc160_2382"
    INDEX 01 13:33:36
  TRACK 463 AUDIO
    TITLE "0:"
    INDEX 01 13:37:05
  TRACK 464 AUDIO
    TITLE "39:cjc160_2383"
    INDEX 01 13:37:42
  TRACK 465 AUDIO
    TITLE "39:cjc160_2384"
    INDEX 01 13:40:44
  TRACK 466 AUDIO
    TITLE "0:"
    INDEX 01 13:43:58
  TRACK 467 AUDIO
    TITLE "40:cjc160_2385"
    INDEX 01 13:44:32
  TRACK 468 AUDIO
    TITLE "40:cjc160_2386"
    INDEX 01 13:47:37
  TRACK 469 AUDIO
    TITLE "0:"
    INDEX 01 13:50:49
  TRACK 470 AUDIO
    TITLE "36:cjc160_2387"
    INDEX 01 13:51:48
  TRACK 471 AUDIO
    TITLE "0:"
    INDEX 01 13:53:08
  TRACK 472 AUDIO
    TITLE "37:cjc160_2388"
    INDEX 01 13:53:47
  TRACK 473 AUDIO
    TITLE "0:"
    INDEX 01 13:56:18
  TRACK 474 AUDIO
    TITLE "38:cjc160_2389"
    INDEX 01 13:56:63
  TRACK 475 AUDIO
    TITLE "38:cjc160_2390"
    INDEX 01 14:00:24
  TRACK 476 AUDIO
    TITLE "0:"
    INDEX 01 14:02:15
  TRACK 477 AUDIO
    TITLE "39:cjc160_2391"
    INDEX 01 14:02:54
  TRACK 478 AUDIO
    TITLE "39:cjc160_2392"
    INDEX 01 14:06:22
  TRACK 479 AUDIO
    TITLE "0:"
    INDEX 01 14:08:37
  TRACK 480 AUDIO
    TITLE "40:cjc160_2393"
    INDEX 01 14:09:11
  TRACK 481 AUDIO
    TITLE "40:cjc160_2394"
    INDEX 01 14:12:52
  TRACK 482 AUDIO
    TITLE "0:"
    INDEX 01 14:14:69
  TRACK 483 AUDIO
    TITLE "36:cjc160_2395"
    INDEX 01 14:15:68
  TRACK 484 AUDIO
    TITLE "0:"
    INDEX 01 14:17:02
  TRACK 485 AUDIO
    TITLE "37:cjc160_2396"
    INDEX 01 14:17:40
  TRACK 486 AUDIO
    TITLE "0:"
    INDEX 01 14:22:39
  TRACK 487 AUDIO
    TITLE "38:cjc160_2397"
    INDEX 01 14:23:03
  TRACK 488 AUDIO
    TITLE "38:cjc160_2398"
    INDEX 01 14:27:48
  TRACK 489 AUDIO
    TITLE "0:"
    INDEX 01 14:31:06
  TRACK 490 AUDIO
    TITLE "39:cjc160_2399"
    INDEX 01 14:31:46
  TRACK 491 AUDIO
    TITLE "39:cjc160_2400"
    INDEX 01 14:35:45
  TRACK 492 AUDIO
    TITLE "0:"
    INDEX 01 14:38:50
  TRACK 493 AUDIO
    TITLE "40:cjc160_2401"
    INDEX 01 14:39:26
  TRACK 494 AUDIO
    TITLE "40:cjc160_2402"
    INDEX 01 14:43:25
  TRACK 495 AUDIO
    TITLE "0:"
    INDEX 01 14:46:30
  TRACK 496 AUDIO
    TITLE "36:cjc160_2403"
    INDEX 01 14:47:31
  TRACK 497 AUDIO
    TITLE "0:"
    INDEX 01 14:48:56
  TRACK 498 AUDIO
    TITLE "37:cjc160_2404"
    INDEX 01 14:49:18
  TRACK 499 AUDIO
    TITLE "0:"
    INDEX 01 14:50:74
  TRACK 500 AUDIO
    TITLE "38:cjc160_2405"
    INDEX 01 14:51:39
  TRACK 501 AUDIO
    TITLE "38:cjc160_2406"
    INDEX 01 14:56:36
  TRACK 502 AUDIO
    TITLE "0:"
    INDEX 01 15:02:54
  TRACK 503 AUDIO
    TITLE "39:cjc160_2407"
    INDEX 01 15:03:18
  TRACK 504 AUDIO
    TITLE "39:cjc160_2408"
    INDEX 01 15:08:15
  TRACK 505 AUDIO
    TITLE "0:"
    INDEX 01 15:13:58
  TRACK 506 AUDIO
    TITLE "40:cjc160_2409"
    INDEX 01 15:14:34
  TRACK 507 AUDIO
    TITLE "40:cjc160_2410"
    INDEX 01 15:19:31
  TRACK 508 AUDIO
    TITLE "0:"
    INDEX 01 15:24:73
  TRACK 509 AUDIO
    TITLE "36:cjc160_2411"
    INDEX 01 15:26:02
  TRACK 510 AUDIO
    TITLE "0:"
    INDEX 01 15:27:27
  TRACK 511 AUDIO
    TITLE "37:cjc160_2412"
    INDEX 01 15:27:64
  TRACK 512 AUDIO
    TITLE "0:"
    INDEX 01 15:29:47
  TRACK 513 AUDIO
    TITLE "38:cjc160_2413"
    INDEX 01 15:30:11
  TRACK 514 AUDIO
    TITLE "38:cjc160_2414"
    INDEX 01 15:32:30
  TRACK 515 AUDIO
    TITLE "0:"
    INDEX 01 15:34:36
  TRACK 516 AUDIO
    TITLE "39:cjc160_2415"
    INDEX 01 15:34:74
  TRACK 517 AUDIO
    TITLE "39:cjc160_2416"
    INDEX 01 15:36:55
  TRACK 518 AUDIO
    TITLE "0:"
    INDEX 01 15:38:05
  TRACK 519 AUDIO
    TITLE "40:cjc160_2417"
    INDEX 01 15:38:56
  TRACK 520 AUDIO
    TITLE "40:cjc160_2418"
    INDEX 01 15:40:37
  TRACK 521 AUDIO
    TITLE "0:"
    INDEX 01 15:41:62
  TRACK 522 AUDIO
    TITLE "36:cjc160_2419"
    INDEX 01 15:42:63
  TRACK 523 AUDIO
    TITLE "0:"
    INDEX 01 15:46:51
  TRACK 524 AUDIO
    TITLE "37:cjc160_2420"
    INDEX 01 15:47:25
  TRACK 525 AUDIO
    TITLE "0:"
    INDEX 01 15:49:10
  TRACK 526 AUDIO
    TITLE "38:cjc160_2421"
    INDEX 01 15:49:50
  TRACK 527 AUDIO
    TITLE "38:cjc160_2422"
    INDEX 01 15:52:01
  TRACK 528 AUDIO
    TITLE "0:"
    INDEX 01 15:57:45
  TRACK 529 AUDIO
    TITLE "39:cjc160_2423"
    INDEX 01 15:58:09
  TRACK 530 AUDIO
    TITLE "39:cjc160_2424"
    INDEX 01 15:59:68
  TRACK 531 AUDIO
    TITLE "0:"
    INDEX 01 16:05:15
  TRACK 532 AUDIO
    TITLE "40:cjc160_2425"
    INDEX 01 16:05:66
  TRACK 533 AUDIO
    TITLE "40:cjc160_2426"
    INDEX 01 16:07:51
  TRACK 534 AUDIO
    TITLE "0:"
    INDEX 01 16:12:72
  TRACK 535 AUDIO
    TITLE "36:cjc160_2427"
    INDEX 01 16:14:01
  TRACK 536 AUDIO
    TITLE "0:"
    INDEX 01 16:16:48
  TRACK 537 AUDIO
    TITLE "37:cjc160_2428"
    INDEX 01 16:17:11
  TRACK 538 AUDIO
    TITLE "0:"
    INDEX 01 16:18:67
  TRACK 539 AUDIO
    TITLE "38:cjc160_2429"
    INDEX 01 16:19:31
  TRACK 540 AUDIO
    TITLE "38:cjc160_2430"
    INDEX 01 16:27:27
  TRACK 541 AUDIO
    TITLE "0:"
    INDEX 01 16:29:39
  TRACK 542 AUDIO
    TITLE "39:cjc160_2431"
    INDEX 01 16:30:06
  TRACK 543 AUDIO
    TITLE "39:cjc160_2432"
    INDEX 01 16:35:03
  TRACK 544 AUDIO
    TITLE "0:"
    INDEX 01 16:37:00
  TRACK 545 AUDIO
    TITLE "40:cjc160_2433"
    INDEX 01 16:37:62
  TRACK 546 AUDIO
    TITLE "40:cjc160_2434"
    INDEX 01 16:42:62
  TRACK 547 AUDIO
    TITLE "0:"
    INDEX 01 16:44:70
  TRACK 548 AUDIO
    TITLE "36:cjc160_2435"
    INDEX 01 16:45:74
  TRACK 549 AUDIO
    TITLE "0:"
    INDEX 01 16:47:41
  TRACK 550 AUDIO
    TITLE "37:cjc160_2436"
    INDEX 01 16:48:03
  TRACK 551 AUDIO
    TITLE "0:"
    INDEX 01 16:49:66
  TRACK 552 AUDIO
    TITLE "38:cjc160_2437"
    INDEX 01 16:50:30
  TRACK 553 AUDIO
    TITLE "38:cjc160_2438"
    INDEX 01 16:54:63
  TRACK 554 AUDIO
    TITLE "0:"
    INDEX 01 16:56:46
  TRACK 555 AUDIO
    TITLE "39:cjc160_2439"
    INDEX 01 16:57:08
  TRACK 556 AUDIO
    TITLE "39:cjc160_2440"
    INDEX 01 17:00:63
  TRACK 557 AUDIO
    TITLE "0:"
    INDEX 01 17:02:17
  TRACK 558 AUDIO
    TITLE "40:cjc160_2441"
    INDEX 01 17:02:72
  TRACK 559 AUDIO
    TITLE "40:cjc160_2442"
    INDEX 01 17:06:52
  TRACK 560 AUDIO
    TITLE "0:"
    INDEX 01 17:08:04
  TRACK 561 AUDIO
    TITLE "36:cjc160_2443"
    INDEX 01 17:09:09
  TRACK 562 AUDIO
    TITLE "0:"
    INDEX 01 17:10:48
  TRACK 563 AUDIO
    TITLE "37:cjc160_2444"
    INDEX 01 17:11:26
  TRACK 564 AUDIO
    TITLE "0:"
    INDEX 01 17:13:31
  TRACK 565 AUDIO
    TITLE "38:cjc160_2445"
    INDEX 01 17:13:70
  TRACK 566 AUDIO
    TITLE "38:cjc160_2446"
    INDEX 01 17:19:06
  TRACK 567 AUDIO
    TITLE "0:"
    INDEX 01 17:23:55
  TRACK 568 AUDIO
    TITLE "39:cjc160_2447"
    INDEX 01 17:24:19
  TRACK 569 AUDIO
    TITLE "39:cjc160_2448"
    INDEX 01 17:28:28
  TRACK 570 AUDIO
    TITLE "0:"
    INDEX 01 17:32:56
  TRACK 571 AUDIO
    TITLE "40:cjc160_2449"
    INDEX 01 17:33:32
  TRACK 572 AUDIO
    TITLE "40:cjc160_2450"
    INDEX 01 17:37:39
  TRACK 573 AUDIO
    TITLE "0:"
    INDEX 01 17:41:66
  TRACK 574 AUDIO
    TITLE "36:cjc160_2451"
    INDEX 01 17:42:64
  TRACK 575 AUDIO
    TITLE "0:"
    INDEX 01 17:44:22
  TRACK 576 AUDIO
    TITLE "37:cjc160_2452"
    INDEX 01 17:44:59
  TRACK 577 AUDIO
    TITLE "0:"
    INDEX 01 17:47:32
  TRACK 578 AUDIO
    TITLE "38:cjc160_2453"
    INDEX 01 17:48:10
  TRACK 579 AUDIO
    TITLE "38:cjc160_2454"
    INDEX 01 17:51:47
  TRACK 580 AUDIO
    TITLE "0:"
    INDEX 01 17:54:69
  TRACK 581 AUDIO
    TITLE "39:cjc160_2455"
    INDEX 01 17:55:31
  TRACK 582 AUDIO
    TITLE "39:cjc160_2456"
    INDEX 01 17:58:12
  TRACK 583 AUDIO
    TITLE "0:"
    INDEX 01 18:01:59
  TRACK 584 AUDIO
    TITLE "40:cjc160_2457"
    INDEX 01 18:02:33
  TRACK 585 AUDIO
    TITLE "40:cjc160_2458"
    INDEX 01 18:05:16
  TRACK 586 AUDIO
    TITLE "0:"
    INDEX 01 18:08:61
  TRACK 587 AUDIO
    TITLE "36:cjc160_2459"
    INDEX 01 18:09:61
  TRACK 588 AUDIO
    TITLE "0:"
    INDEX 01 18:11:40
  TRACK 589 AUDIO
    TITLE "37:cjc160_2460"
    INDEX 01 18:12:02
  TRACK 590 AUDIO
    TITLE "0:"
    INDEX 01 18:13:62
  TRACK 591 AUDIO
    TITLE "38:cjc160_2461"
    INDEX 01 18:14:27
  TRACK 592 AUDIO
    TITLE "38:cjc160_2462"
    INDEX 01 18:18:20
  TRACK 593 AUDIO
    TITLE "0:"
    INDEX 01 18:22:22
  TRACK 594 AUDIO
    TITLE "39:cjc160_2463"
    INDEX 01 18:22:61
  TRACK 595 AUDIO
    TITLE "39:cjc160_2464"
    INDEX 01 18:26:16
  TRACK 596 AUDIO
    TITLE "0:"
    INDEX 01 18:29:18
  TRACK 597 AUDIO
    TITLE "40:cjc160_2465"
    INDEX 01 18:29:67
  TRACK 598 AUDIO
    TITLE "40:cjc160_2466"
    INDEX 01 18:33:24
  TRACK 599 AUDIO
    TITLE "0:"
    INDEX 01 18:36:26
  TRACK 600 AUDIO
    TITLE "36:cjc160_2467"
    INDEX 01 18:37:26
  TRACK 601 AUDIO
    TITLE "0:"
    INDEX 01 18:38:51
  TRACK 602 AUDIO
    TITLE "37:cjc160_2468"
    INDEX 01 18:39:15
  TRACK 603 AUDIO
    TITLE "0:"
    INDEX 01 18:40:34
  TRACK 604 AUDIO
    TITLE "38:cjc160_2469"
    INDEX 01 18:41:08
  TRACK 605 AUDIO
    TITLE "38:cjc160_2470"
    INDEX 01 18:44:69
  TRACK 606 AUDIO
    TITLE "0:"
    INDEX 01 18:50:66
  TRACK 607 AUDIO
    TITLE "39:cjc160_2471"
    INDEX 01 18:51:30
  TRACK 608 AUDIO
    TITLE "39:cjc160_2472"
    INDEX 01 18:53:62
  TRACK 609 AUDIO
    TITLE "0:"
    INDEX 01 18:59:70
  TRACK 610 AUDIO
    TITLE "40:cjc160_2473"
    INDEX 01 19:00:46
  TRACK 611 AUDIO
    TITLE "40:cjc160_2474"
    INDEX 01 19:03:03
  TRACK 612 AUDIO
    TITLE "0:"
    INDEX 01 19:09:12
  TRACK 613 AUDIO
    TITLE "36:cjc160_2475"
    INDEX 01 19:10:11
  TRACK 614 AUDIO
    TITLE "0:"
    INDEX 01 19:11:40
  TRACK 615 AUDIO
    TITLE "37:cjc160_2476"
    INDEX 01 19:12:02
  TRACK 616 AUDIO
    TITLE "0:"
    INDEX 01 19:13:29
  TRACK 617 AUDIO
    TITLE "38:cjc160_2477"
    INDEX 01 19:13:69
  TRACK 618 AUDIO
    TITLE "38:cjc160_2478"
    INDEX 01 19:16:43
  TRACK 619 AUDIO
    TITLE "0:"
    INDEX 01 19:18:31
  TRACK 620 AUDIO
    TITLE "39:cjc160_2479"
    INDEX 01 19:18:72
  TRACK 621 AUDIO
    TITLE "39:cjc160_2480"
    INDEX 01 19:21:21
  TRACK 622 AUDIO
    TITLE "0:"
    INDEX 01 19:23:22
  TRACK 623 AUDIO
    TITLE "40:cjc160_2481"
    INDEX 01 19:23:73
  TRACK 624 AUDIO
    TITLE "40:cjc160_2482"
    INDEX 01 19:26:24
  TRACK 625 AUDIO
    TITLE "0:"
    INDEX 01 19:28:25
  TRACK 626 AUDIO
    TITLE "36:cjc160_2483"
    INDEX 01 19:29:26
  TRACK 627 AUDIO
    TITLE "0:"
    INDEX 01 19:30:53
  TRACK 628 AUDIO
    TITLE "37:cjc160_2484"
    INDEX 01 19:31:17
  TRACK 629 AUDIO
    TITLE "0:"
    INDEX 01 19:33:69
  TRACK 630 AUDIO
    TITLE "38:cjc160_2485"
    INDEX 01 19:34:31
  TRACK 631 AUDIO
    TITLE "38:cjc160_2486"
    INDEX 01 19:37:45
  TRACK 632 AUDIO
    TITLE "0:"
    INDEX 01 19:40:16
  TRACK 633 AUDIO
    TITLE "39:cjc160_2487"
    INDEX 01 19:40:58
  TRACK 634 AUDIO
    TITLE "39:cjc160_2488"
    INDEX 01 19:43:01
  TRACK 635 AUDIO
    TITLE "0:"
    INDEX 01 19:45:12
  TRACK 636 AUDIO
    TITLE "40:cjc160_2489"
    INDEX 01 19:45:63
  TRACK 637 AUDIO
    TITLE "40:cjc160_2490"
    INDEX 01 19:48:08
  TRACK 638 AUDIO
    TITLE "0:"
    INDEX 01 19:50:17
  TRACK 639 AUDIO
    TITLE "36:cjc160_2491"
    INDEX 01 19:51:16
  TRACK 640 AUDIO
    TITLE "0:"
    INDEX 01 19:52:67
  TRACK 641 AUDIO
    TITLE "37:cjc160_2492"
    INDEX 01 19:53:29
  TRACK 642 AUDIO
    TITLE "0:"
    INDEX 01 19:56:74
  TRACK 643 AUDIO
    TITLE "38:cjc160_2493"
    INDEX 01 19:57:38
  TRACK 644 AUDIO
    TITLE "38:cjc160_2494"
    INDEX 01 20:00:49
  TRACK 645 AUDIO
    TITLE "0:"
    INDEX 01 20:04:44
  TRACK 646 AUDIO
    TITLE "39:cjc160_2495"
    INDEX 01 20:05:09
  TRACK 647 AUDIO
    TITLE "39:cjc160_2496"
    INDEX 01 20:08:54
  TRACK 648 AUDIO
    TITLE "0:"
    INDEX 01 20:12:24
  TRACK 649 AUDIO
    TITLE "40:cjc160_2497"
    INDEX 01 20:12:69
  TRACK 650 AUDIO
    TITLE "40:cjc160_2498"
    INDEX 01 20:16:42
  TRACK 651 AUDIO
    TITLE "0:"
    INDEX 01 20:20:12
  TRACK 652 AUDIO
    TITLE "36:cjc160_2499"
    INDEX 01 20:21:09
  TRACK 653 AUDIO
    TITLE "0:"
    INDEX 01 20:22:48
  TRACK 654 AUDIO
    TITLE "37:cjc160_2500"
    INDEX 01 20:23:12
  TRACK 655 AUDIO
    TITLE "0:"
    INDEX 01 20:25:09
  TRACK 656 AUDIO
    TITLE "38:cjc160_2501"
    INDEX 01 20:25:48
  TRACK 657 AUDIO
    TITLE "38:cjc160_2502"
    INDEX 01 20:29:07
  TRACK 658 AUDIO
    TITLE "0:"
    INDEX 01 20:33:07
  TRACK 659 AUDIO
    TITLE "39:cjc160_2503"
    INDEX 01 20:33:44
  TRACK 660 AUDIO
    TITLE "39:cjc160_2504"
    INDEX 01 20:36:38
  TRACK 661 AUDIO
    TITLE "0:"
    INDEX 01 20:40:11
  TRACK 662 AUDIO
    TITLE "40:cjc160_2505"
    INDEX 01 20:40:62
  TRACK 663 AUDIO
    TITLE "40:cjc160_2506"
    INDEX 01 20:43:56
  TRACK 664 AUDIO
    TITLE "0:"
    INDEX 01 20:47:28
  TRACK 665 AUDIO
    TITLE "36:cjc160_2507"
    INDEX 01 20:48:30
  TRACK 666 AUDIO
    TITLE "0:"
    INDEX 01 20:49:43
  TRACK 667 AUDIO
    TITLE "37:cjc160_2508"
    INDEX 01 20:50:07
  TRACK 668 AUDIO
    TITLE "0:"
    INDEX 01 20:53:43
  TRACK 669 AUDIO
    TITLE "38:cjc160_2509"
    INDEX 01 20:54:07
  TRACK 670 AUDIO
    TITLE "38:cjc160_2510"
    INDEX 01 20:56:06
  TRACK 671 AUDIO
    TITLE "0:"
    INDEX 01 20:58:42
  TRACK 672 AUDIO
    TITLE "39:cjc160_2511"
    INDEX 01 20:59:06
  TRACK 673 AUDIO
    TITLE "39:cjc160_2512"
    INDEX 01 21:00:51
  TRACK 674 AUDIO
    TITLE "0:"
    INDEX 01 21:02:67
  TRACK 675 AUDIO
    TITLE "40:cjc160_2513"
    INDEX 01 21:03:45
  TRACK 676 AUDIO
    TITLE "40:cjc160_2514"
    INDEX 01 21:05:15
  TRACK 677 AUDIO
    TITLE "0:"
    INDEX 01 21:07:35
  TRACK 678 AUDIO
    TITLE "36:cjc160_2515"
    INDEX 01 21:08:35
  TRACK 679 AUDIO
    TITLE "0:"
    INDEX 01 21:09:71
  TRACK 680 AUDIO
    TITLE "37:cjc160_2516"
    INDEX 01 21:10:33
  TRACK 681 AUDIO
    TITLE "0:"
    INDEX 01 21:11:51
  TRACK 682 AUDIO
    TITLE "38:cjc160_2517"
    INDEX 01 21:12:15
  TRACK 683 AUDIO
    TITLE "38:cjc160_2518"
    INDEX 01 21:14:67
  TRACK 684 AUDIO
    TITLE "0:"
    INDEX 01 21:16:05
  TRACK 685 AUDIO
    TITLE "39:cjc160_2519"
    INDEX 01 21:16:46
  TRACK 686 AUDIO
    TITLE "39:cjc160_2520"
    INDEX 01 21:18:47
  TRACK 687 AUDIO
    TITLE "0:"
    INDEX 01 21:20:02
  TRACK 688 AUDIO
    TITLE "40:cjc160_2521"
    INDEX 01 21:20:55
  TRACK 689 AUDIO
    TITLE "40:cjc160_2522"
    INDEX 01 21:22:54
  TRACK 690 AUDIO
    TITLE "0:"
    INDEX 01 21:24:10
  TRACK 691 AUDIO
    TITLE "36:cjc160_2523"
    INDEX 01 21:25:09
  TRACK 692 AUDIO
    TITLE "0:"
    INDEX 01 21:27:18
  TRACK 693 AUDIO
    TITLE "37:cjc160_2524"
    INDEX 01 21:27:57
  TRACK 694 AUDIO
    TITLE "0:"
    INDEX 01 21:30:28
  TRACK 695 AUDIO
    TITLE "38:cjc160_2525"
    INDEX 01 21:30:67
  TRACK 696 AUDIO
    TITLE "38:cjc160_2526"
    INDEX 01 21:33:05
  TRACK 697 AUDIO
    TITLE "0:"
    INDEX 01 21:41:09
  TRACK 698 AUDIO
    TITLE "39:cjc160_2527"
    INDEX 01 21:41:48
  TRACK 699 AUDIO
    TITLE "39:cjc160_2528"
    INDEX 01 21:43:54
  TRACK 700 AUDIO
    TITLE "0:"
    INDEX 01 21:50:45
  TRACK 701 AUDIO
    TITLE "40:cjc160_2529"
    INDEX 01 21:51:21
  TRACK 702 AUDIO
    TITLE "40:cjc160_2530"
    INDEX 01 21:53:27
  TRACK 703 AUDIO
    TITLE "0:"
    INDEX 01 22:00:16
  TRACK 704 AUDIO
    TITLE "36:cjc160_2531"
    INDEX 01 22:01:13
  TRACK 705 AUDIO
    TITLE "0:"
    INDEX 01 22:02:32
  TRACK 706 AUDIO
    TITLE "37:cjc160_2532"
    INDEX 01 22:02:69
  TRACK 707 AUDIO
    TITLE "0:"
    INDEX 01 22:06:24
  TRACK 708 AUDIO
    TITLE "38:cjc160_2533"
    INDEX 01 22:06:63
  TRACK 709 AUDIO
    TITLE "38:cjc160_2534"
    INDEX 01 22:10:61
  TRACK 710 AUDIO
    TITLE "0:"
    INDEX 01 22:14:43
  TRACK 711 AUDIO
    TITLE "39:cjc160_2535"
    INDEX 01 22:15:09
  TRACK 712 AUDIO
    TITLE "39:cjc160_2536"
    INDEX 01 22:19:21
  TRACK 713 AUDIO
    TITLE "0:"
    INDEX 01 22:24:02
  TRACK 714 AUDIO
    TITLE "40:cjc160_2537"
    INDEX 01 22:24:55
  TRACK 715 AUDIO
    TITLE "40:cjc160_2538"
    INDEX 01 22:28:67
  TRACK 716 AUDIO
    TITLE "0:"
    INDEX 01 22:33:46
  TRACK 717 AUDIO
    TITLE "36:cjc160_2539"
    INDEX 01 22:34:46
  TRACK 718 AUDIO
    TITLE "0:"
    INDEX 01 22:36:13
  TRACK 719 AUDIO
    TITLE "37:cjc160_2540"
    INDEX 01 22:36:53
  TRACK 720 AUDIO
    TITLE "0:"
    INDEX 01 22:37:72
  TRACK 721 AUDIO
    TITLE "38:cjc160_2541"
    INDEX 01 22:38:38
  TRACK 722 AUDIO
    TITLE "38:cjc160_2542"
    INDEX 01 22:43:57
  TRACK 723 AUDIO
    TITLE "0:"
    INDEX 01 22:48:50
  TRACK 724 AUDIO
    TITLE "39:cjc160_2543"
    INDEX 01 22:49:14
  TRACK 725 AUDIO
    TITLE "39:cjc160_2544"
    INDEX 01 22:53:34
  TRACK 726 AUDIO
    TITLE "0:"
    INDEX 01 22:58:50
  TRACK 727 AUDIO
    TITLE "40:cjc160_2545"
    INDEX 01 22:59:26
  TRACK 728 AUDIO
    TITLE "40:cjc160_2546"
    INDEX 01 23:03:48
  TRACK 729 AUDIO
    TITLE "0:"
    INDEX 01 23:08:57
  TRACK 730 AUDIO
    TITLE "36:cjc160_2547"
    INDEX 01 23:09:64
  TRACK 731 AUDIO
    TITLE "0:"
    INDEX 01 23:11:16
  TRACK 732 AUDIO
    TITLE "37:cjc160_2548"
    INDEX 01 23:11:51
  TRACK 733 AUDIO
    TITLE "0:"
    INDEX 01 23:12:50
  TRACK 734 AUDIO
    TITLE "38:cjc160_2549"
    INDEX 01 23:13:13
  TRACK 735 AUDIO
    TITLE "38:cjc160_2550"
    INDEX 01 23:17:12
  TRACK 736 AUDIO
    TITLE "0:"
    INDEX 01 23:21:08
  TRACK 737 AUDIO
    TITLE "39:cjc160_2551"
    INDEX 01 23:21:47
  TRACK 738 AUDIO
    TITLE "39:cjc160_2552"
    INDEX 01 23:25:00
  TRACK 739 AUDIO
    TITLE "0:"
    INDEX 01 23:29:41
  TRACK 740 AUDIO
    TITLE "40:cjc160_2553"
    INDEX 01 23:30:17
  TRACK 741 AUDIO
    TITLE "40:cjc160_2554"
    INDEX 01 23:33:45
  TRACK 742 AUDIO
    TITLE "0:"
    INDEX 01 23:38:11
  TRACK 743 AUDIO
    TITLE "36:cjc160_2555"
    INDEX 01 23:39:12
  TRACK 744 AUDIO
    TITLE "0:"
    INDEX 01 23:40:57
  TRACK 745 AUDIO
    TITLE "37:cjc160_2556"
    INDEX 01 23:41:19
  TRACK 746 AUDIO
    TITLE "0:"
    INDEX 01 23:44:05
  TRACK 747 AUDIO
    TITLE "38:cjc160_2557"
    INDEX 01 23:44:49
  TRACK 748 AUDIO
    TITLE "38:cjc160_2558"
    INDEX 01 23:47:37
  TRACK 749 AUDIO
    TITLE "0:"
    INDEX 01 23:53:12
  TRACK 750 AUDIO
    TITLE "39:cjc160_2559"
    INDEX 01 23:53:47
  TRACK 751 AUDIO
    TITLE "39:cjc160_2560"
    INDEX 01 23:55:64
  TRACK 752 AUDIO
    TITLE "0:"
    INDEX 01 24:00:08
  TRACK 753 AUDIO
    TITLE "40:cjc160_2561"
    INDEX 01 24:00:69
  TRACK 754 AUDIO
    TITLE "40:cjc160_2562"
    INDEX 01 24:03:09
  TRACK 755 AUDIO
    TITLE "0:"
    INDEX 01 24:07:26
  TRACK 756 AUDIO
    TITLE "36:cjc160_2563"
    INDEX 01 24:08:31
  TRACK 757 AUDIO
    TITLE "0:"
    INDEX 01 24:09:64
  TRACK 758 AUDIO
    TITLE "37:cjc160_2564"
    INDEX 01 24:10:26
  TRACK 759 AUDIO
    TITLE "0:"
    INDEX 01 24:11:57
  TRACK 760 AUDIO
    TITLE "38:cjc160_2565"
    INDEX 01 24:12:21
  TRACK 761 AUDIO
    TITLE "38:cjc160_2566"
    INDEX 01 24:15:22
  TRACK 762 AUDIO
    TITLE "0:"
    INDEX 01 24:16:50
  TRACK 763 AUDIO
    TITLE "39:cjc160_2567"
    INDEX 01 24:17:15
  TRACK 764 AUDIO
    TITLE "39:cjc160_2568"
    INDEX 01 24:19:37
  TRACK 765 AUDIO
    TITLE "0:"
    INDEX 01 24:20:68
  TRACK 766 AUDIO
    TITLE "40:cjc160_2569"
    INDEX 01 24:21:44
  TRACK 767 AUDIO
    TITLE "40:cjc160_2570"
    INDEX 01 24:23:66
  TRACK 768 AUDIO
    TITLE "0:"
    INDEX 01 24:25:24
  TRACK 769 AUDIO
    TITLE "36:cjc160_2571"
    INDEX 01 24:26:21
  TRACK 770 AUDIO
    TITLE "0:"
    INDEX 01 24:27:27
  TRACK 771 AUDIO
    TITLE "37:cjc160_2572"
    INDEX 01 24:27:64
  TRACK 772 AUDIO
    TITLE "0:"
    INDEX 01 24:28:71
  TRACK 773 AUDIO
    TITLE "38:cjc160_2573"
    INDEX 01 24:29:35
  TRACK 774 AUDIO
    TITLE "38:cjc160_2574"
    INDEX 01 24:31:56
  TRACK 775 AUDIO
    TITLE "0:"
    INDEX 01 24:33:37
  TRACK 776 AUDIO
    TITLE "39:cjc160_2575"
    INDEX 01 24:33:72
  TRACK 777 AUDIO
    TITLE "39:cjc160_2576"
    INDEX 01 24:36:10
  TRACK 778 AUDIO
    TITLE "0:"
    INDEX 01 24:37:39
  TRACK 779 AUDIO
    TITLE "40:cjc160_2577"
    INDEX 01 24:38:13
  TRACK 780 AUDIO
    TITLE "40:cjc160_2578"
    INDEX 01 24:40:27
  TRACK 781 AUDIO
    TITLE "0:"
    INDEX 01 24:41:56
